<svg width="16" height="16" viewBox="0 0 16 16" fill="none" xmlns="http://www.w3.org/2000/svg">
<g clip-path="url(#clip0_902_488)">
<mask id="path-1-inside-1_902_488" fill="white">
<path d="M8 16C3.5815 16 0 12.4185 0 8C0 3.5815 3.5815 0 8 0C12.4185 0 16 3.5815 16 8C16 10.1217 15.1571 12.1566 13.6569 13.6569C12.1566 15.1571 10.1217 16 8 16ZM8 1C4.134 1 1 4.134 1 8C1 11.866 4.134 15 8 15C11.866 15 15 11.866 15 8C15 6.14348 14.2625 4.36301 12.9497 3.05025C11.637 1.7375 9.85652 1 8 1Z"/>
</mask>
<path d="M8 16C3.5815 16 0 12.4185 0 8C0 3.5815 3.5815 0 8 0C12.4185 0 16 3.5815 16 8C16 10.1217 15.1571 12.1566 13.6569 13.6569C12.1566 15.1571 10.1217 16 8 16ZM8 1C4.134 1 1 4.134 1 8C1 11.866 4.134 15 8 15C11.866 15 15 11.866 15 8C15 6.14348 14.2625 4.36301 12.9497 3.05025C11.637 1.7375 9.85652 1 8 1Z" fill="white"/>
<path d="M8 16L8 18L8 16ZM16 8H18H16ZM8 16V14C4.68607 14 2 11.3139 2 8H0H-2C-2 13.5231 2.47693 18 8 18V16ZM0 8H2C2 4.68607 4.68607 2 8 2V0V-2C2.47693 -2 -2 2.47693 -2 8H0ZM8 0V2C11.3139 2 14 4.68607 14 8H16H18C18 2.47693 13.5231 -2 8 -2V0ZM16 8L14 8C14 9.5913 13.3679 11.1174 12.2426 12.2426L13.6569 13.6569L15.0711 15.0711C16.9464 13.1957 18 10.6522 18 8L16 8ZM13.6569 13.6569L12.2426 12.2426C11.1174 13.3679 9.5913 14 8 14L8 16L8 18C10.6522 18 13.1957 16.9464 15.0711 15.0711L13.6569 13.6569ZM8 1V-1C3.02943 -1 -1 3.02943 -1 8H1H3C3 5.23857 5.23857 3 8 3V1ZM1 8H-1C-1 12.9706 3.02943 17 8 17V15V13C5.23857 13 3 10.7614 3 8H1ZM8 15V17C12.9706 17 17 12.9706 17 8H15H13C13 10.7614 10.7614 13 8 13V15ZM15 8H17C17 5.61305 16.0518 3.32387 14.364 1.63604L12.9497 3.05025L11.5355 4.46447C12.4732 5.40215 13 6.67392 13 8H15ZM12.9497 3.05025L14.364 1.63604C12.6761 -0.0517885 10.3869 -1 8 -1V1L8 3C9.32608 3 10.5979 3.52678 11.5355 4.46447L12.9497 3.05025Z" fill="white" mask="url(#path-1-inside-1_902_488)"/>
<path d="M11.5 7.5H8.5V4.5H7.5V7.5H4.5V8.5H7.5V11.5H8.5V8.5H11.5V7.5Z" fill="white"/>
</g>
<defs>
<clipPath id="clip0_902_488">
<rect width="16" height="16" fill="white"/>
</clipPath>
</defs>
</svg>
