<svg width="24" height="24" viewBox="0 0 24 24" fill="none" xmlns="http://www.w3.org/2000/svg">
<path d="M12 21C7.02919 21 3 16.9708 3 12C3 7.02919 7.02919 3 12 3C16.9708 3 21 7.02919 21 12C21 14.3869 20.0518 16.6761 18.364 18.364C16.6761 20.0518 14.3869 21 12 21ZM12 4.125C7.65075 4.125 4.125 7.65075 4.125 12C4.125 16.3492 7.65075 19.875 12 19.875C16.3492 19.875 19.875 16.3492 19.875 12C19.875 9.91142 19.0453 7.90838 17.5685 6.43153C16.0916 4.95469 14.0886 4.125 12 4.125Z" fill="white"/>
<path d="M17.25 11.25H12.75V6.75H11.25V11.25H6.75V12.75H11.25V17.25H12.75V12.75H17.25V11.25Z" fill="white"/>
</svg>
