<svg width="48" height="48" viewBox="0 0 48 48" fill="none" xmlns="http://www.w3.org/2000/svg">
<rect width="48" height="48" rx="24" fill="#141414"/>
<path d="M36.2182 23.9993C36.2189 24.2956 36.1429 24.5871 35.9976 24.8454C35.8524 25.1036 35.6427 25.3199 35.3891 25.4731L19.6713 35.0884C19.4063 35.2507 19.1028 35.3393 18.7921 35.345C18.4814 35.3508 18.1748 35.2735 17.904 35.1211C17.6358 34.9712 17.4123 34.7524 17.2566 34.4875C17.1009 34.2225 17.0186 33.9208 17.0182 33.6135V14.3851C17.0186 14.0778 17.1009 13.7762 17.2566 13.5112C17.4123 13.2462 17.6358 13.0275 17.904 12.8775C18.1748 12.7252 18.4814 12.6479 18.7921 12.6536C19.1028 12.6594 19.4063 12.748 19.6713 12.9102L35.3891 22.5255C35.6427 22.6787 35.8524 22.895 35.9976 23.1533C36.1429 23.4115 36.2189 23.703 36.2182 23.9993Z" fill="#D9D9D9"/>
</svg>
